<svg height="70" width="159.02116" xmlns="http://www.w3.org/2000/svg">
<rect fill="#fff" height="70" width="159.02116" x="0" y="0"/>
<path d="M20.044975 32.32187L20.044975 45.593475Q20.044975 48.415344,20.662258 49.1649Q21.477955 50.13492,22.844799 50.13492L24.674604 50.13492L24.674604 50.928574L12.6155205 50.928574L12.6155205 50.13492L13.519401 50.13492Q14.401236 50.13492,15.128748 49.694004Q15.856262 49.253086,16.131836 48.503525Q16.407408 47.753967,16.407408 45.593475L16.407408 32.32187L12.483246 32.32187L12.483246 30.73457L16.407408 30.73457L16.407408 29.411818Q16.407408 26.391535,17.377426 24.29718Q18.347443 22.202824,20.342594 20.913141Q22.337744 19.623459,24.828926 19.623459Q27.14374 19.623459,29.083775 21.122576Q30.362434 22.11464,30.362434 23.349207Q30.362434 24.010584,29.789244 24.594799Q29.216051 25.179014,28.554674 25.179014Q28.04762 25.179014,27.48545 24.815256Q26.92328 24.4515,26.107586 23.250002Q25.29189 22.048502,24.608467 21.629631Q23.925045 21.21076,23.087303 21.21076Q22.073193 21.21076,21.367725 21.750883Q20.662258 22.291006,20.353617 23.426369Q20.044975 24.56173,20.044975 29.279543L20.044975 30.73457L25.247795 30.73457L25.247795 32.32187L20.044975 32.32187ZM39.723106 29.655205Q44.308643 29.655205,47.086422 33.13845Q49.445328 36.11464,49.445328 39.972664Q49.445328 42.684303,48.144623 45.462082Q46.843918 48.23986,44.562172 49.650795Q42.280426 51.06173,39.480602 51.06173Q34.917107 51.06173,32.227516 47.424164Q29.95679 44.359787,29.95679 40.545856Q29.95679 37.768078,31.334658 35.02337Q32.712524 32.27866,34.9612 30.966932Q37.209877 29.655205,39.723106 29.655205ZM39.039684 31.088184Q37.871254 31.088184,36.6918 31.782629Q35.51235 32.477074,34.784832 34.218697Q34.05732 35.96032,34.05732 38.694004Q34.05732 43.103176,35.809967 46.299824Q37.56261 49.496475,40.428574 49.496475Q42.56702 49.496475,43.95591 47.732803Q45.3448 45.96914,45.3448 41.670197Q45.3448 36.291008,43.029984 33.204586Q41.46473 31.088184,39.039684 31.088184ZM55.53968 33.9321Q59.089066 29.655205,62.307762 29.655205Q63.9612 29.655205,65.15167 30.481924Q66.34215 31.308643,67.04762 33.204586Q67.53263 34.527336,67.53263 37.261024L67.53263 45.88095Q67.53263 47.798943,67.84127 48.48236Q68.08377 49.03351,68.6239 49.34215Q69.164024 49.650795,70.61905 49.650795L70.61905 50.444443L60.632275 50.444443L60.632275 49.650795L61.051147 49.650795Q62.462082 49.650795,63.02425 49.2209Q63.58642 48.791008,63.806877 47.953262Q63.89506 47.622574,63.89506 45.88095L63.89506 37.613758Q63.89506 34.858025,63.178574 33.612434Q62.462082 32.366844,60.76455 32.366844Q58.141094 32.366844,55.53968 35.232803L55.53968 45.88095Q55.53968 47.931217,55.78219 48.416225Q56.090828 49.055557,56.63095 49.353172Q57.171074 49.650795,58.824516 49.650795L58.824516 50.444443L48.83774 50.444443L48.83774 49.650795L49.27866 49.650795Q50.82187 49.650795,51.36199 48.868164Q51.902115 48.08554,51.902115 45.88095L51.902115 38.38536Q51.902115 34.747795,51.73677 33.954147Q51.57143 33.160492,51.229717 32.8739Q50.88801 32.587303,50.314816 32.587303Q49.697533 32.587303,48.83774 32.91799L48.507053 32.12434L54.59171 29.655205L55.53968 29.655205L55.53968 33.9321ZM77.38096 23.574074L77.38096 30.209877L82.09877 30.209877L82.09877 31.753086L77.38096 31.753086L77.38096 44.848324Q77.38096 46.810402,77.94313 47.493828Q78.505295 48.177246,79.38713 48.177246Q80.11465 48.177246,80.798065 47.725307Q81.48149 47.27337,81.85627 46.391533L82.71606 46.391533Q81.94445 48.552025,80.533516 49.643295Q79.12258 50.734566,77.62347 50.734566Q76.60935 50.734566,75.639336 50.172398Q74.66932 49.61023,74.20636 48.56305Q73.74339 47.515873,73.74339 45.333332L73.74339 31.753086L70.546745 31.753086L70.546745 31.025574Q71.75927 30.540564,73.0269 29.383158Q74.29454 28.22575,75.286606 26.638449Q75.793655 25.800705,76.69754 23.574074L77.38096 23.574074ZM84.03792 38.64462L95.43563 38.64462L95.43563 41.97354L84.03792 41.97354L84.03792 38.64462ZM108.47795 29.655205L108.47795 36.53351L107.750435 36.53351Q106.9127 33.29277,105.60097 32.12434Q104.28924 30.95591,102.26102 30.95591Q100.71781 30.95591,99.76984 31.771606Q98.82187 32.587303,98.82187 33.57937Q98.82187 34.813934,99.527336 35.69577Q100.210754 36.599648,102.305115 37.613758L105.5238 39.179012Q109.999115 41.361553,109.999115 44.932983Q109.999115 47.688713,107.91578 49.37522Q105.83245 51.06173,103.25308 51.06173Q101.40123 51.06173,99.02028 50.400352Q98.29276 50.179893,97.8298 50.179893Q97.32275 50.179893,97.03615 50.753086L96.30864 50.753086L96.30864 43.54409L97.03615 43.54409Q97.653435 46.630512,99.39506 48.19577Q101.13668 49.761024,103.29717 49.761024Q104.81834 49.761024,105.777336 48.868164Q106.73633 47.97531,106.73633 46.718697Q106.73633 45.197533,105.66711 44.161377Q104.59788 43.12522,101.40123 41.537918Q98.20458 39.95062,97.21252 38.67196Q96.22045 37.415344,96.22045 35.497356Q96.22045 33.006172,97.92901 31.330688Q99.637566 29.655205,102.349205 29.655205Q103.53968 29.655205,105.23721 30.162258Q106.36155 30.492947,106.73633 30.492947Q107.089066 30.492947,107.287476 30.338625Q107.485886 30.184305,107.750435 29.655205L108.47795 29.655205ZM107.91005 29.84568L117.41181 29.84568L117.41181 30.661377L116.79453 30.661377Q115.93474 30.661377,115.4828 31.080248Q115.03086 31.499119,115.03086 32.204586Q115.03086 32.97619,115.49383 34.034393L120.18959 45.189594L124.90741 33.61552Q125.41446 32.38095,125.41446 31.741623Q125.41446 31.432981,125.23809 31.234568Q124.99559 30.903881,124.62081 30.782629Q124.24603 30.661377,123.09965 30.661377L123.09965 29.84568L129.69136 29.84568L129.69136 30.661377Q128.54497 30.74956,128.10405 31.12434Q127.33245 31.785715,126.715164 33.328926L119.55026 50.656967L118.646385 50.656967L111.437386 33.61552Q110.95238 32.425045,110.51146 31.906967Q110.07054 31.38889,109.38712 31.036156Q109.012344 30.837744,107.91005 30.661377L107.91005 29.84568ZM135.67374 43.08113Q133.82188 42.17725,132.82983 40.556877Q131.83777 38.93651,131.83777 36.974426Q131.83777 33.97619,134.09746 31.815697Q136.35716 29.655205,139.8845 29.655205Q142.7725 29.655205,144.88892 31.06614L149.1658 31.06614Q150.11377 31.06614,150.2681 31.121254Q150.42242 31.176369,150.48856 31.308643Q150.62083 31.507055,150.62083 32.01411Q150.62083 32.587303,150.5106 32.807762Q150.44446 32.91799,150.27911 32.984127Q150.11377 33.050266,149.1658 33.050266L146.54234 33.050266Q147.77692 34.637566,147.77692 37.106705Q147.77692 39.928574,145.61642 41.934746Q143.45593 43.940918,139.81836 43.940918Q138.31924 43.940918,136.75398 43.5Q135.78397 44.33774,135.44226 44.96605Q135.10056 45.594357,135.10056 46.03527Q135.10056 46.410053,135.46431 46.762787Q135.82806 47.11552,136.88626 47.269844Q137.50354 47.358025,139.97269 47.424164Q144.51413 47.534393,145.85893 47.732803Q147.9092 48.0194,149.13274 49.253967Q150.35628 50.488537,150.35628 52.296295Q150.35628 54.787476,148.01942 56.970016Q144.58026 60.188713,139.04675 60.188713Q134.7919 60.188713,131.8598 58.27072Q130.20638 57.16843,130.20638 55.97795Q130.20638 55.448853,130.44887 54.919754Q130.82365 54.104057,131.99208 52.649033Q132.14641 52.450615,134.24077 50.268078Q133.09438 49.584656,132.62039 49.044533Q132.14641 48.50441,132.14641 47.820988Q132.14641 47.049385,132.77472 46.01323Q133.40302 44.977074,135.67374 43.08113ZM139.50972 30.713406Q137.87833 30.713406,136.77603 32.01411Q135.67374 33.314816,135.67374 36.00441Q135.67374 39.487656,137.17287 41.405643Q138.31924 42.860672,140.08292 42.860672Q141.75839 42.860672,142.83864 41.604057Q143.91888 40.347443,143.91888 37.65785Q143.91888 34.152557,142.39774 32.168434Q141.27339 30.713406,139.50972 30.713406ZM135.45328 50.444443Q134.41713 51.568783,133.88803 52.538803Q133.35893 53.50882,133.35893 54.324516Q133.35893 55.382713,134.63759 56.17637Q136.84218 57.543213,141.00883 57.543213Q144.9771 57.543213,146.86201 56.143295Q148.74693 54.743385,148.74693 53.156082Q148.74693 52.0097,147.62259 51.52469Q146.47621 51.03968,143.08115 50.9515Q138.12083 50.81922,135.45328 50.444443Z" fill="#000"/>
</svg>