<svg height="70" width="150.22487" xmlns="http://www.w3.org/2000/svg">
<rect fill="#fff" height="70" width="150.22487" x="0" y="0"/>
<path d="M17.71605 23.574074L17.71605 30.209877L22.433863 30.209877L22.433863 31.753086L17.71605 31.753086L17.71605 44.848324Q17.71605 46.810402,18.27822 47.493828Q18.84039 48.177246,19.722221 48.177246Q20.449736 48.177246,21.133158 47.725307Q21.816578 47.27337,22.191359 46.391533L23.051147 46.391533Q22.279541 48.552025,20.868607 49.643295Q19.457672 50.734566,17.958553 50.734566Q16.944445 50.734566,15.974426 50.172398Q15.00441 49.61023,14.541447 48.56305Q14.078484 47.515873,14.078484 45.333332L14.078484 31.753086L10.881834 31.753086L10.881834 31.025574Q12.094357 30.540564,13.361993 29.383158Q14.629629 28.22575,15.621693 26.638449Q16.128748 25.800705,17.032627 23.574074L17.71605 23.574074ZM27.194885 37.834213Q27.17284 42.33157,29.377426 44.88889Q31.582012 47.446205,34.5582 47.446205Q36.542328 47.446205,38.008377 46.35494Q39.474426 45.263668,40.46649 42.618164L41.149914 43.059082Q40.68695 46.079365,38.46032 48.559525Q36.23369 51.03968,32.882717 51.03968Q29.245152 51.03968,26.654762 48.206787Q24.064375 45.373898,24.064375 40.589947Q24.064375 35.409172,26.7209 32.51014Q29.377426 29.61111,33.38977 29.61111Q36.784836 29.61111,38.967373 31.848764Q41.149914 34.08642,41.149914 37.834213L27.194885 37.834213ZM27.194885 36.555557L36.542328 36.555557Q36.4321 34.61552,36.079365 33.82187Q35.52822 32.587303,34.43695 31.881834Q33.34568 31.176367,32.155205 31.176367Q30.325397 31.176367,28.881393 32.598324Q27.43739 34.020283,27.194885 36.555557ZM40.029106 29.84568L49.53087 29.84568L49.53087 30.661377Q48.62699 30.661377,48.263233 30.970018Q47.899475 31.27866,47.899475 31.785715Q47.899475 32.314816,48.67108 33.417107Q48.913586 33.769844,49.398598 34.5194L50.831577 36.812172L52.485016 34.5194Q54.07232 32.33686,54.07232 31.76367Q54.07232 31.300707,53.697536 30.981041Q53.322758 30.661377,52.485016 30.661377L52.485016 29.84568L59.31923 29.84568L59.31923 30.661377Q58.238983 30.727514,57.445335 31.256615Q56.365086 32.006172,54.491188 34.5194L51.73546 38.201057L56.76191 45.4321Q58.61376 48.099648,59.407413 48.63977Q60.201065 49.179893,61.45768 49.246033L61.45768 50.03968L51.93387 50.03968L51.93387 49.246033Q52.925934 49.246033,53.477077 48.805115Q53.89595 48.496475,53.89595 47.989418Q53.89595 47.48236,52.485016 45.4321L49.53087 41.11111L46.29013 45.4321Q44.79101 47.43827,44.79101 47.81305Q44.79101 48.34215,45.287045 48.772045Q45.783073 49.201942,46.77514 49.246033L46.77514 50.03968L40.183426 50.03968L40.183426 49.246033Q40.977077 49.135803,41.572315 48.694885Q42.410057 48.055557,44.394188 45.4321L48.62699 39.810406L44.79101 34.254852Q43.15962 31.873898,42.26676 31.267637Q41.373905 30.661377,40.029106 30.661377L40.029106 29.84568ZM68.55821 23.574074L68.55821 30.209877L73.276024 30.209877L73.276024 31.753086L68.55821 31.753086L68.55821 44.848324Q68.55821 46.810402,69.120384 47.493828Q69.682556 48.177246,70.564384 48.177246Q71.2919 48.177246,71.97532 47.725307Q72.658745 47.27337,73.03352 46.391533L73.89331 46.391533Q73.121704 48.552025,71.71077 49.643295Q70.299835 50.734566,68.80072 50.734566Q67.786606 50.734566,66.81659 50.172398Q65.84657 49.61023,65.38361 48.56305Q64.92065 47.515873,64.92065 45.333332L64.92065 31.753086L61.724 31.753086L61.724 31.025574Q62.93652 30.540564,64.204155 29.383158Q65.471794 28.22575,66.46386 26.638449Q66.97091 25.800705,67.874794 23.574074L68.55821 23.574074ZM75.21517 38.64462L86.612885 38.64462L86.612885 41.97354L75.21517 41.97354L75.21517 38.64462ZM99.655205 29.655205L99.655205 36.53351L98.92769 36.53351Q98.08995 33.29277,96.77822 32.12434Q95.46649 30.95591,93.43827 30.95591Q91.895065 30.95591,90.94709 31.771606Q89.99912 32.587303,89.99912 33.57937Q89.99912 34.813934,90.70459 35.69577Q91.38801 36.599648,93.48236 37.613758L96.70106 39.179012Q101.17637 41.361553,101.17637 44.932983Q101.17637 47.688713,99.09303 49.37522Q97.009705 51.06173,94.430336 51.06173Q92.57848 51.06173,90.19753 50.400352Q89.47002 50.179893,89.00706 50.179893Q88.5 50.179893,88.2134 50.753086L87.48589 50.753086L87.48589 43.54409L88.2134 43.54409Q88.83069 46.630512,90.57231 48.19577Q92.313934 49.761024,94.47443 49.761024Q95.99559 49.761024,96.95459 48.868164Q97.91358 47.97531,97.91358 46.718697Q97.91358 45.197533,96.84436 44.161377Q95.77513 43.12522,92.57848 41.537918Q89.381836 39.95062,88.38977 38.67196Q87.397705 37.415344,87.397705 35.497356Q87.397705 33.006172,89.10626 31.330688Q90.81482 29.655205,93.52646 29.655205Q94.716934 29.655205,96.41447 30.162258Q97.5388 30.492947,97.91358 30.492947Q98.26631 30.492947,98.46473 30.338625Q98.66314 30.184305,98.92769 29.655205L99.655205 29.655205ZM99.0873 29.84568L108.589066 29.84568L108.589066 30.661377L107.97179 30.661377Q107.112 30.661377,106.66006 31.080248Q106.208115 31.499119,106.208115 32.204586Q106.208115 32.97619,106.67108 34.034393L111.366844 45.189594L116.084656 33.61552Q116.59171 32.38095,116.59171 31.741623Q116.59171 31.432981,116.415344 31.234568Q116.172844 30.903881,115.798065 30.782629Q115.42328 30.661377,114.2769 30.661377L114.2769 29.84568L120.86861 29.84568L120.86861 30.661377Q119.72223 30.74956,119.28131 31.12434Q118.509705 31.785715,117.89242 33.328926L110.727516 50.656967L109.82364 50.656967L102.61464 33.61552Q102.12963 32.425045,101.68871 31.906967Q101.247795 31.38889,100.56438 31.036156Q100.1896 30.837744,99.0873 30.661377L99.0873 29.84568ZM126.85098 43.08113Q124.99913 42.17725,124.007065 40.556877Q123.015 38.93651,123.015 36.974426Q123.015 33.97619,125.274704 31.815697Q127.5344 29.655205,131.06174 29.655205Q133.94975 29.655205,136.06615 31.06614L140.34305 31.06614Q141.29102 31.06614,141.44534 31.121254Q141.59966 31.176369,141.6658 31.308643Q141.79807 31.507055,141.79807 32.01411Q141.79807 32.587303,141.68784 32.807762Q141.6217 32.91799,141.45636 32.984127Q141.29102 33.050266,140.34305 33.050266L137.71959 33.050266Q138.95416 34.637566,138.95416 37.106705Q138.95416 39.928574,136.79366 41.934746Q134.63316 43.940918,130.9956 43.940918Q129.49649 43.940918,127.93123 43.5Q126.96121 44.33774,126.6195 44.96605Q126.27779 45.594357,126.27779 46.03527Q126.27779 46.410053,126.64155 46.762787Q127.0053 47.11552,128.0635 47.269844Q128.68079 47.358025,131.14992 47.424164Q135.69138 47.534393,137.03616 47.732803Q139.08643 48.0194,140.30998 49.253967Q141.53352 50.488537,141.53352 52.296295Q141.53352 54.787476,139.19666 56.970016Q135.7575 60.188713,130.224 60.188713Q125.96915 60.188713,123.03705 58.27072Q121.383606 57.16843,121.383606 55.97795Q121.383606 55.448853,121.626114 54.919754Q122.00089 54.104057,123.16932 52.649033Q123.32365 52.450615,125.418 50.268078Q124.271614 49.584656,123.79763 49.044533Q123.32365 48.50441,123.32365 47.820988Q123.32365 47.049385,123.95195 46.01323Q124.58025 44.977074,126.85098 43.08113ZM130.68697 30.713406Q129.05557 30.713406,127.95327 32.01411Q126.85098 33.314816,126.85098 36.00441Q126.85098 39.487656,128.3501 41.405643Q129.49649 42.860672,131.26015 42.860672Q132.93564 42.860672,134.01588 41.604057Q135.09613 40.347443,135.09613 37.65785Q135.09613 34.152557,133.57497 32.168434Q132.45062 30.713406,130.68697 30.713406ZM126.63052 50.444443Q125.59437 51.568783,125.06527 52.538803Q124.53616 53.50882,124.53616 54.324516Q124.53616 55.382713,125.81483 56.17637Q128.01941 57.543213,132.18608 57.543213Q136.15433 57.543213,138.03925 56.143295Q139.92418 54.743385,139.92418 53.156082Q139.92418 52.0097,138.79984 51.52469Q137.65344 51.03968,134.25839 50.9515Q129.29807 50.81922,126.63052 50.444443Z" fill="#000"/>
</svg>