<svg height="60" width="200" xmlns="http://www.w3.org/2000/svg">
<rect fill="#fff" height="60" width="200" x="0" y="0"/>
<path d="M10.671329 33L10.671329 0.96328735L32.284092 0.96328735L32.284092 4.743881L14.910839 4.743881L14.910839 14.665209L29.945805 14.665209L29.945805 18.445805L14.910839 18.445805L14.910839 33L10.671329 33ZM34.437065 12.395979Q34.437065 5.949301,38.02098 2.8461533Q41.014862 0.26748276,45.31993 0.26748276Q50.10577 0.26748276,53.143356 3.403408Q56.180946 6.5393353,56.180946 12.068182Q56.180946 16.548077,54.836975 19.115822Q53.493008 21.683567,50.925262 23.104021Q48.357517 24.524475,45.31993 24.524475Q40.44668 24.524475,37.44187 21.399475Q34.437065 18.274475,34.437065 12.395979ZM38.479897 12.395979Q38.479897 16.854021,40.424828 19.072115Q42.369755 21.29021,45.31993 21.29021Q48.248253 21.29021,50.193184 19.061188Q52.138115 16.832169,52.138115 12.26486Q52.138115 7.9597893,50.18226 5.7416954Q48.2264 3.5236015,45.31993 3.5236015Q42.369755 3.5236015,40.424828 5.730768Q38.479897 7.937937,38.479897 12.395979ZM57.53584 24L57.53584 0.79195786L61.076046 0.79195786L61.076046 4.0917835Q63.632866 0.26748276,68.46241 0.26748276Q70.56031 0.26748276,72.31949 1.0214157Q74.078674 1.7753487,74.9528 2.9991264Q75.82692 4.2229023,76.176575 5.905594Q76.3951 6.998251,76.3951 9.729895L76.3951 24L72.46153 24L72.46153 9.882867Q72.46153 7.479021,72.002625 6.288025Q71.5437 5.0970287,70.37456 4.386801Q69.20542 3.6765728,67.63199 3.6765728Q65.11888 3.6765728,63.294144 5.2718525Q61.469406 6.867132,61.469406 11.325174L61.469406 24L57.53584 24ZM89.87412 28.481644L90.44231 31.956293Q88.78146 32.305943,87.470276 32.305943Q85.32867 32.305943,84.1486 31.628496Q82.96853 30.95105,82.48776 29.847466Q82.00699 28.743881,82.00699 25.20367L82.00699 11.851398L79.122375 11.851398L79.122375 8.791958L82.00699 8.791958L82.00699 3.0445805L85.9187 0.6844406L85.9187 8.791958L89.87412 8.791958L89.87412 11.851398L85.9187 11.851398L85.9187 25.422203Q85.9187 27.104895,86.12631 27.585665Q86.333916 28.066433,86.80376 28.350525Q87.2736 28.634615,88.14773 28.634615Q88.80332 28.634615,89.87412 28.481644ZM92.100525 22.707169L96.09965 22.357517Q96.38374 24.761364,97.42177 26.30201Q98.45979 27.842657,100.6451 28.79327Q102.83042 29.743881,105.562065 29.743881Q107.98776 29.743881,109.845276 29.022728Q111.7028 28.301573,112.6097 27.045017Q113.51661 25.788462,113.51661 24.302448Q113.51661 22.79458,112.64249 21.669144Q111.76836 20.543705,109.757866 19.778847Q108.46853 19.276222,104.0542 18.216347Q99.63986 17.156467,97.86975 16.216784Q95.57517 15.01486,94.44974 13.233828Q93.3243 11.452797,93.3243 9.245628Q93.3243 6.819929,94.70105 4.7111015Q96.0778 2.602272,98.72203 1.509615Q101.36626 0.41695786,104.600525 0.41695786Q108.16258 0.41695786,110.8833 1.5642471Q113.60402 2.7115383,115.068184 4.9405594Q116.53234 7.1695805,116.64161 9.988636L112.57692 10.29458Q112.24913 7.2569923,110.358826 5.7054195Q108.46853 4.1538467,104.77535 4.1538467Q100.9292 4.1538467,99.17001 5.5633736Q97.410835 6.9729023,97.410835 8.961538Q97.410835 10.687937,98.65647 11.802448Q99.88024 12.916958,105.048515 14.086102Q110.21678 15.255245,112.13986 16.12937Q114.937065 17.418705,116.2701 19.396416Q117.60315 21.374126,117.60315 23.952797Q117.60315 26.509615,116.138985 28.771416Q114.67483 31.033216,111.93225 32.289772Q109.18968 33.54633,105.75874 33.54633Q101.409966 33.54633,98.47072 32.278847Q95.53147 31.011364,93.8597 28.465471Q92.187935 25.91958,92.100525 22.707169ZM128.84091 24L120.012245 0.79195786L124.16434 0.79195786L129.14685 14.690559Q129.95543 16.941433,130.63287 19.367132Q131.15735 17.531467,132.09703 14.952797L137.25438 0.79195786L141.29721 0.79195786L132.51224 24L128.84091 24ZM143.33566 25.923077L147.15997 26.491259Q147.40034 28.261364,148.49301 29.069931Q149.95717 30.162588,152.49213 30.162588Q155.22377 30.162588,156.7098 29.069931Q158.1958 27.977272,158.72028 26.01049Q159.02623 24.808567,159.00436 20.962412Q156.4257 24,152.57954 24Q147.7937 24,145.17133 20.547203Q142.54895 17.094406,142.54895 12.26486Q142.54895 8.943182,143.75087 6.1350517Q144.9528 3.3269234,147.23645 1.7972031Q149.52011 0.26748276,152.6014 0.26748276Q156.7098 0.26748276,159.37587 3.589161L159.37587 0.79195786L163.0035 0.79195786L163.0035 20.853148Q163.0035 26.272728,161.89992 28.534529Q160.79633 30.79633,158.40341 32.107517Q156.0105 33.418705,152.51399 33.418705Q148.3619 33.418705,145.80507 31.550262Q143.24825 29.681818,143.33566 25.923077ZM146.59178 11.980769Q146.59178 16.548077,148.4056 18.645979Q150.2194 20.743881,152.95105 20.743881Q155.66084 20.743881,157.4965 18.656906Q159.33217 16.569931,159.33217 12.111888Q159.33217 7.850525,157.44186 5.687063Q155.55157 3.5236015,152.8855 3.5236015Q150.2631 3.5236015,148.42744 5.6542835Q146.59178 7.7849655,146.59178 11.980769Z" fill="#000"/>
</svg>