<svg height="200" width="200" xmlns="http://www.w3.org/2000/svg">
<path d="M10.468532 13L10.468532 0.18531513L19.113636 0.18531513L19.113636 1.6975527L12.164335 1.6975527L12.164335 5.666084L18.178322 5.666084L18.178322 7.178322L12.164335 7.178322L12.164335 13L10.468532 13ZM21.174824 5.358392Q21.174824 2.7797203,22.608389 1.5384617Q23.805943 0.5069933,25.52797 0.5069933Q27.442307 0.5069933,28.657341 1.761364Q29.872375 3.0157342,29.872375 5.227273Q29.872375 7.019231,29.33479 8.046329Q28.797201 9.073426,27.770103 9.641608Q26.743004 10.20979,25.52797 10.20979Q23.578669 10.20979,22.376747 8.95979Q21.174824 7.70979,21.174824 5.358392ZM22.791956 5.358392Q22.791956 7.141608,23.569927 8.028846Q24.3479 8.916084,25.52797 8.916084Q26.699299 8.916084,27.47727 8.024475Q28.255243 7.132867,28.255243 5.305944Q28.255243 3.5839162,27.4729 2.6966786Q26.690557 1.8094406,25.52797 1.8094406Q24.3479 1.8094406,23.569927 2.692308Q22.791956 3.5751748,22.791956 5.358392ZM31.414333 10L31.414333 0.7167835L32.830418 0.7167835L32.830418 2.0367136Q33.853146 0.5069933,35.784966 0.5069933Q36.624123 0.5069933,37.327797 0.8085661Q38.031467 1.1101398,38.38112 1.5996504Q38.730766 2.089161,38.87063 2.762238Q38.95804 3.1993008,38.95804 4.2919583L38.95804 10L37.384613 10L37.384613 4.353147Q37.384613 3.3916082,37.201046 2.9152098Q37.01748 2.4388113,36.549824 2.1547203Q36.082165 1.8706293,35.452797 1.8706293Q34.44755 1.8706293,33.717655 2.5087414Q32.987762 3.1468534,32.987762 4.93007L32.987762 10L31.414333 10ZM45.349648 11.592657L45.57692 12.982517Q44.912586 13.122377,44.38811 13.122377Q43.531467 13.122377,43.05944 12.851398Q42.58741 12.58042,42.395103 12.138986Q42.202797 11.697553,42.202797 10.281468L42.202797 4.9405594L41.04895 4.9405594L41.04895 3.7167835L42.202797 3.7167835L42.202797 1.4178324L43.767483 0.47377682L43.767483 3.7167835L45.349648 3.7167835L45.349648 4.9405594L43.767483 4.9405594L43.767483 10.368881Q43.767483 11.041958,43.850525 11.234266Q43.933563 11.426574,44.121502 11.54021Q44.30944 11.653846,44.65909 11.653846Q44.921326 11.653846,45.349648 11.592657ZM48.04021 9.882868L49.639862 9.743008Q49.753498 10.704546,50.16871 11.320805Q50.583916 11.937063,51.458042 12.317307Q52.33217 12.697553,53.424828 12.697553Q54.395107 12.697553,55.138115 12.409091Q55.88112 12.120629,56.24388 11.618007Q56.606644 11.115385,56.606644 10.520979Q56.606644 9.917832,56.256996 9.467657Q55.907345 9.017483,55.10315 8.711538Q54.587414 8.510489,52.82168 8.086538Q51.055946 7.6625876,50.347904 7.2867136Q49.430073 6.805944,48.979897 6.0935316Q48.52972 5.381119,48.52972 4.498252Q48.52972 3.5279722,49.08042 2.6844406Q49.63112 1.840909,50.688812 1.4038467Q51.746506 0.9667835,53.04021 0.9667835Q54.465034 0.9667835,55.55332 1.4256992Q56.64161 1.8846159,57.227272 2.7762241Q57.81294 3.6678324,57.856644 4.795455L56.23077 4.9178324Q56.09965 3.702797,55.343533 3.0821676Q54.587414 2.4615383,53.11014 2.4615383Q51.57168 2.4615383,50.868008 3.0253496Q50.164337 3.589161,50.164337 4.384616Q50.164337 5.0751753,50.66259 5.520979Q51.1521 5.9667835,53.219406 6.4344406Q55.286713 6.902098,56.055946 7.2517486Q57.174828 7.7674828,57.708042 8.558567Q58.24126 9.34965,58.24126 10.381119Q58.24126 11.403847,57.655594 12.308566Q57.06993 13.213286,55.972904 13.715909Q54.875877 14.218532,53.503498 14.218532Q51.76399 14.218532,50.588287 13.711538Q49.41259 13.204545,48.74388 12.186189Q48.075176 11.167832,48.04021 9.882868ZM64.13637 10L60.604897 0.7167835L62.265736 0.7167835L64.25874 6.276224Q64.58217 7.1765738,64.85315 8.146853Q65.06294 7.412587,65.43881 6.381119L67.50175 0.7167835L69.11888 0.7167835L65.6049 10L64.13637 10ZM70.73427 10.769231L72.263985 10.996504Q72.36014 11.704545,72.7972 12.027972Q73.382866 12.4650345,74.39686 12.4650345Q75.48951 12.4650345,76.083916 12.027972Q76.67832 11.590909,76.888115 10.804195Q77.01049 10.323426,77.00175 8.7849655Q75.97028 10,74.43182 10Q72.51749 10,71.46854 8.618881Q70.41958 7.2377625,70.41958 5.305944Q70.41958 3.977273,70.90035 2.854021Q71.38112 1.7307692,72.29458 1.1188812Q73.208046 0.5069933,74.44056 0.5069933Q76.083916 0.5069933,77.15035 1.8356647L77.15035 0.7167835L78.6014 0.7167835L78.6014 8.741259Q78.6014 10.909091,78.159966 11.813811Q77.71854 12.718532,76.76137 13.243007Q75.8042 13.767483,74.405594 13.767483Q72.74476 13.767483,71.72203 13.020105Q70.6993 12.272727,70.73427 10.769231ZM72.03671 5.192308Q72.03671 7.019231,72.76224 7.858392Q73.48776 8.697553,74.58042 8.697553Q75.66434 8.697553,76.398605 7.8627625Q77.132866 7.027972,77.132866 5.2447553Q77.132866 3.5402098,76.37675 2.6748252Q75.62063 1.8094406,74.5542 1.8094406Q73.50525 1.8094406,72.77098 2.6617136Q72.03671 3.513986,72.03671 5.192308Z" fill="#000"/>
</svg>